<?xml version="1.0" encoding="utf-8"?>
<!-- Svg Vector Icons : http://www.onlinewebfonts.com/icon -->
<!DOCTYPE svg PUBLIC "-//W3C//DTD SVG 1.1//EN" "http://www.w3.org/Graphics/SVG/1.1/DTD/svg11.dtd">
<svg version="1.1" xmlns="http://www.w3.org/2000/svg" xmlns:xlink="http://www.w3.org/1999/xlink" x="0px" y="0px" viewBox="0 0 1000 1000" enable-background="new 0 0 1000 1000" xml:space="preserve">
<metadata> Svg Vector Icons : http://www.onlinewebfonts.com/icon </metadata>
<g><path d="M678.1,752.4c-54.1,37.5-117.3,56.1-181.8,55.4c-8.4,0-16.9-0.7-25.3-1.4l-10.1-1.4c-6.8-0.7-13.5-1.7-19.9-3l-11.5-2.4c-6.4-1.7-12.5-3-18.9-5.1l-8.8-2.7c-7.1-2.4-14.2-4.7-21-7.8l-4.4-2c-8.1-3.4-16.2-7.1-23.7-11.2l-1.4-0.7c-25.7-14.2-49.7-31.8-70.3-52.4l-1-1.4c-6.8-6.4-12.8-13.2-18.6-20.3l-3.7-4.4c-42.6-52.7-67.9-119.6-67.9-191.9h81.4L140.8,305.4L10,500h81.8c0,85.2,26.7,164.2,72.3,229.8l1.4,2.7c4.7,6.8,10.1,12.8,15.2,19.3l5.4,7.1c7.4,8.8,15.5,17.2,23.7,25.7l2,2.4c27.4,27,58.5,50,91.9,68.3l2.7,1.7c9.8,5.1,19.6,9.8,29.7,14.2l7.4,3.4c8.8,3.4,17.6,6.4,26.4,9.5l12.8,4.1c7.8,2.4,15.5,4.4,23.7,6.1c5.4,1.4,10.8,2.7,16.2,3.7l6.4,1.4c7.8,1.4,15.2,2.4,23,3l8.1,1c13.5,1.4,27,2.4,40.6,2.4c83.1,0,164.2-25.3,233.5-73.7c22.3-15.2,27.7-45.6,12.2-67.6C730.8,742.3,700.1,736.9,678.1,752.4z"/><path d="M908.2,500c0-85.2-26.4-164.2-71.6-229.5l-2-3c-5.7-8.1-11.8-15.5-17.9-23l-2-2.7c-41.6-50-93.6-88.5-152.4-113.9l-5.1-2c-9.1-4.1-18.9-7.4-28.7-10.5l-10.5-3.4c-8.4-2.7-16.9-4.7-25.7-6.8l-14.2-3l-7.1-1.7c-6.4-1-12.8-1.7-19.3-2.4l-13.5-1.7c-10.8-1-21.6-1.7-32.4-1.7l-5.7-0.3h-1c-82.8,0.3-163.6,25-233.2,73.3c-22,15.5-27.4,45.6-11.8,67.6c15.2,22.3,46,27.4,67.9,12.2c53.7-37.5,116.2-56.1,180.5-55.8c9.1,0.3,18.2,0.7,27.4,1.4l8.1,1c7.4,1,14.5,2,22,3.4l9.5,2.4c7.1,1.4,13.9,3,21,5.4l6.4,2c8.1,2.7,15.9,5.4,23.3,8.4l2.4,1c45.6,19.6,85.8,49.7,116.9,87.2l0.7,0.7c43.9,53.1,70.3,121.3,70.3,195.3h-81.4l130.4,194.6L990,500H908.2z"/></g>
</svg>   